# xmcd
#
# Track frame offsets: 
#        150
#        17599
#        36576
#        48790
#        59617
#        81753
#        95119
#        109810
#        126768
#        147580
#        157376
#        175519
#        192688
#        203737
#        217207
#        231348
#        241628
#        268390
#        290137
#        307146
#
# Disc length: 4416 seconds
#
# Revision: 0
# Processed by: cddbd v1.5.2PL0 Copyright (c) Steve Scherf et al.
# Submitted via: ExactAudioCopyFreeDBPlugin 1.0
#
DISCID=43113e14
DTITLE=The Lennerockers - Wild Live
DYEAR=2016
DGENRE=Rock and Roll
TTITLE0=Barrelhouse 'N' boogie
TTITLE1=Rough around the edges 
TTITLE2=My heart is achin' for you 
TTITLE3=School of rock 'N' roll 
TTITLE4=I'm always in trouble 
TTITLE5=Rock-a-boogie shake shack a dooby doo wop 
TTITLE6=The unknown pictures 
TTITLE7=Crazy little teddy girl 
TTITLE8=Pullman City blues 
TTITLE9=Hot rod baby 
TTITLE10=Wabash Cannonball 
TTITLE11=There's gonna be some rockin' 
TTITLE12=Stompin' witht he wildcats 
TTITLE13=That's my baby 
TTITLE14=Women, booze and Rock'n'Roll 
TTITLE15=Great balls of fire 
TTITLE16=Whole lotta shakin' goin' on 
TTITLE17=Saturday night 
TTITLE18=Long tall Sally 
TTITLE19=Goodbye boogie 
EXTD=
EXTT0=
EXTT1=
EXTT2=
EXTT3=
EXTT4=
EXTT5=
EXTT6=
EXTT7=
EXTT8=
EXTT9=
EXTT10=
EXTT11=
EXTT12=
EXTT13=
EXTT14=
EXTT15=
EXTT16=
EXTT17=
EXTT18=
EXTT19=
PLAYORDER=
